<svg xmlns="http://www.w3.org/2000/svg" viewBox="0 0 80 80">
  <!-- Dental pattern with tooth motifs -->
  <path fill="#1a73e8" fill-opacity="0.1"
    d="M20 20c5 0 9-4 9-9s-4-9-9-9-9 4-9 9 4 9 9 9zm40 0c5 0 9-4 9-9s-4-9-9-9-9 4-9 9 4 9 9 9zm0 40c5 0 9-4 9-9s-4-9-9-9-9 4-9 9 4 9 9 9zm-40 0c5 0 9-4 9-9s-4-9-9-9-9 4-9 9 4 9 9 9z" />
  <path fill="#1a73e8" fill-opacity="0.1"
    d="M32 23c0 3.5 2.5 6.5 6 7.5v3.5c0 1.5-0.5 2-2 2h-4c-1.5 0-2 0.5-2 2v3c0 1.5 0.5 2 2 2h6v3c0 1.5 0.5 2 2 2h4c1.5 0 2-0.5 2-2v-3h6c1.5 0 2-0.5 2-2v-3c0-1.5-0.5-2-2-2h-4c-1.5 0-2-0.5-2-2V31c3.5-1 6-4 6-7.5C52 19 48 15 42 15h-2c-6 0-8 4-8 8z" />
  <path fill="#1a73e8" fill-opacity="0.1"
    d="M32 63c0 3.5 2.5 6.5 6 7.5v3.5c0 1.5-0.5 2-2 2h-4c-1.5 0-2 0.5-2 2v3c0 1.5 0.5 2 2 2h6v3c0 1.5 0.5 2 2 2h4c1.5 0 2-0.5 2-2v-3h6c1.5 0 2-0.5 2-2v-3c0-1.5-0.5-2-2-2h-4c-1.5 0-2-0.5-2-2V71c3.5-1 6-4 6-7.5C52 59 48 55 42 55h-2c-6 0-8 4-8 8z" />
</svg>