<svg xmlns="http://www.w3.org/2000/svg" viewBox="0 0 448 512">
  <!-- Custom tooth-shaped favicon -->
  <path fill="#1a73e8" d="M224 0c70.7 0 128 57.3 128 128 0 23.4-6.5 48.8-18.8 76.2-12.3 27.1-30.1 57.6-54.8 89.7-53.1 69-114.7 125.4-115.2 125.8-3 3-7.8 3-10.8 0-.5-.4-62.1-56.8-115.2-125.8-24.7-32.1-42.5-62.6-54.8-89.7C-6.5 176.8 0 151.4 0 128 0 57.3 57.3 0 128 0h96zm0 64c-26.5 0-48 21.5-48 48s21.5 48 48 48 48-21.5 48-48-21.5-48-48-48zM133.5 288c0 35.3 28.7 64 64 64h53c17.7 0 32 14.3 32 32s-14.3 32-32 32h-53c-70.7 0-128-57.3-128-128V176c0-8.8 7.2-16 16-16s16 7.2 16 16v112z"/>
</svg>